<svg xmlns="http://www.w3.org/2000/svg" viewBox="0 0 142.627 40.99"><path fill="#35409A" d="M17.502 0C8.126.06 0 2.17 0 12.504c0 2.675.092 2.89 1.655 2.886 1.546-.005 32.06-.037 32.082-.037 1.194.015 1.513-.275 1.507-2.316C35.214 2.354 28.442-.068 17.502 0"/><path fill="#FFF" d="M7.464 12.743l-1.06-3.19-3.346-.012L5.764 7.55 4.74 4.36 7.474 6.32l2.714-1.957L9.17 7.565l2.7 1.977-3.36.024-1.046 3.18zM17.723 12.704l-1.06-3.188-3.346-.013 2.706-1.993L15 4.323l2.732 1.957 2.714-1.957-1.016 3.203 2.7 1.977-3.36.023-1.047 3.178zM27.964 12.74l-1.06-3.188-3.346-.012 2.705-1.994L25.24 4.36l2.732 1.957 2.714-1.957-1.016 3.203 2.7 1.977-3.36.022-1.046 3.18z"/><path fill="#DC1F26" d="M1.397 16.456C.43 16.45.09 16.714.09 17.54c0 1.712-.128 14.93-.054 17.08.03.847.497 1.096 1.122 1.104 1.397.02 4.872.064 6.16.037.88-.018 1.26-.44 1.304-1.71.04-1.19-.02-3.16.02-4.926.012-.596.22-1.03.826-1.048 1.538-.047 7.448-.048 8.623-.02 1.49.037 1.73.02 1.766 1.563.043 1.834.037 2.96-.02 4.375-.058 1.512.442 1.654 1.25 1.673 1.195.026 3.954-.04 5.333-.02 1.832.027 1.798-.53 1.82-2.922.01-1.03 0-4.617-.038-6.25-.01-.407.202-.695.478-.7 1.124-.018 1.358 2.924 1.636 4.395 1.03 5.45 3.415 6.147 5.59 6.16 2.724.017 5.32-2.243 5.33-6.895.002-.7-.146-1.306-.66-1.306-2.3 0-.958.032-2.17 0-.645-.02-1.214.072-1.085 1.065.13.993.186 2.843-1.066 2.887-.533.018-.956-.368-.956-1.453s-.077-12.135-.11-13.018c-.02-.478-.038-1.194-.994-1.176-1.193.025-30.86.03-32.797.02z"/><g fill="#364299"><path d="M45.854 18.95h2.86c.325 0 .683.013 1.073.04.39.027.78.093 1.17.198.39.105.767.263 1.13.473.363.21.685.5.966.866.282.366.507.826.677 1.378.17.553.254 1.223.254 2.01v.438c0 1.323-.19 2.4-.57 3.23s-.94 1.43-1.68 1.797l2.79 6.95h-2.79l-2.31-6.503h-.986v6.502h-2.584V18.95zm2.98 8.974c.462 0 .852-.05 1.17-.153a1.6 1.6 0 0 0 .774-.513c.196-.24.34-.56.427-.957.088-.397.132-.887.132-1.47v-1.375c0-.448-.04-.834-.122-1.16a1.82 1.82 0 0 0-.412-.804 1.74 1.74 0 0 0-.77-.467c-.318-.102-.718-.153-1.2-.153h-.397v7.052h.4zM59.734 36.482c-.604 0-1.14-.11-1.604-.336-.464-.224-.856-.573-1.175-1.048-.32-.475-.56-1.083-.723-1.827-.163-.742-.244-1.635-.244-2.68v-2.646c0-.89.066-1.65.198-2.284s.306-1.167.52-1.598c.213-.43.46-.772.742-1.023.28-.252.57-.443.87-.576s.596-.217.89-.254a6.43 6.43 0 0 1 .82-.056c.46 0 .905.07 1.333.208.43.14.805.376 1.13.712.326.336.586.785.78 1.348.192.563.29 1.266.29 2.107 0 .284-.01.572-.026.864-.018.292-.04.58-.066.86-.027.282-.063.555-.106.82-.045.264-.09.508-.138.73h-4.65v1.426c0 .61.023 1.125.07 1.542.048.417.128.753.24 1.007.11.253.265.437.457.55.194.11.438.167.73.167.155 0 .31-.032.457-.097.15-.064.28-.17.393-.32.11-.15.2-.35.27-.596.067-.248.102-.555.102-.92v-.44h2.147v.54c0 1.33-.318 2.298-.953 2.905-.635.608-1.553.912-2.753.912zm1.425-8.405a12.038 12.038 0 0 0 .035-.692c.003-.136.005-.27.005-.402v-.34c0-.924-.108-1.588-.325-1.996-.218-.407-.54-.61-.967-.61-.224 0-.42.052-.59.158-.17.105-.31.28-.418.53-.108.247-.19.574-.244.98-.055.408-.08.914-.08 1.518v.854h2.583zM68.312 37.124v3.734h-2.574v-18.54h2.015l.234 1.475c.115-.19.252-.383.412-.58.158-.196.345-.37.56-.524.212-.153.453-.28.722-.377.268-.098.567-.147.9-.147.143 0 .313.014.514.04.2.028.407.096.62.205.214.11.428.27.642.484s.403.507.57.88c.166.373.302.838.406 1.394.105.556.158 1.23.158 2.025v4.244c0 .793-.053 1.47-.158 2.025-.104.556-.242 1.02-.412 1.394-.17.373-.362.668-.58.886-.217.217-.438.38-.66.488s-.442.178-.652.208a3.83 3.83 0 0 1-.55.046c-.542 0-.995-.104-1.358-.315a3.024 3.024 0 0 1-.89-.764l.08 1.718zm0-3.654c.054.136.12.265.198.387s.17.23.275.326c.104.095.224.17.355.23.133.057.287.085.463.085.19 0 .363-.036.52-.107s.29-.2.407-.386c.115-.187.205-.446.27-.778s.097-.76.097-1.282V26.58c0-.52-.032-.947-.097-1.276s-.153-.588-.265-.778c-.112-.19-.246-.32-.402-.387s-.33-.103-.52-.103c-.325 0-.59.097-.798.29a2.37 2.37 0 0 0-.504.676v8.467zM75.832 22.317h2.575V32.85c0 .617.095 1.046.285 1.287.19.24.468.36.834.36.258 0 .51-.07.753-.213s.464-.346.66-.61V22.317h2.575V36.33H81.55l-.254-1.496h-.01a4.2 4.2 0 0 1-.646.8 3.072 3.072 0 0 1-.712.508c-.248.126-.5.216-.76.27a3.7 3.7 0 0 1-.772.082c-.82 0-1.453-.285-1.897-.855-.445-.57-.668-1.432-.668-2.585V22.317zM86.202 17.82h2.574v3.733l-.08 1.852.01.01c.114-.163.248-.32.4-.468.153-.15.326-.283.52-.402.193-.12.407-.212.642-.28a2.77 2.77 0 0 1 .768-.102c.143 0 .314.014.515.04.2.028.407.096.62.205s.43.27.643.483c.213.215.403.508.57.88s.3.84.406 1.395.156 1.23.156 2.025v4.244c0 .793-.052 1.47-.157 2.025s-.243 1.02-.413 1.398c-.17.376-.363.673-.58.89s-.438.38-.66.488c-.226.108-.442.18-.652.21-.21.03-.394.045-.55.045-.325 0-.62-.04-.88-.12-.262-.083-.492-.193-.692-.332s-.376-.297-.53-.473a4.38 4.38 0 0 1-.4-.54l-.214 1.303h-2.016v-18.51zm2.574 15.67c.054.13.12.254.198.377.078.122.168.23.27.32a1.172 1.172 0 0 0 .814.31c.19 0 .362-.035.52-.106s.29-.2.406-.387.205-.446.27-.778.097-.76.097-1.282V26.58c0-.522-.03-.948-.096-1.277s-.152-.588-.265-.778c-.112-.19-.246-.32-.402-.387s-.33-.102-.52-.102c-.318 0-.58.093-.788.28s-.375.41-.504.667v8.507zM96.306 17.82h2.575v18.51h-2.574V17.82zM102.94 20.313c-.474 0-.85-.143-1.123-.427-.274-.285-.412-.702-.412-1.252 0-.305.035-.56.106-.768s.174-.373.307-.5a1.2 1.2 0 0 1 .483-.274c.19-.058.407-.086.65-.086.51 0 .897.13 1.16.387s.397.67.397 1.24c0 .53-.134.942-.4 1.237-.27.295-.657.443-1.166.443zm-1.332 2.004h2.575V36.33h-2.575V22.317zM110.136 36.482c-1.18 0-2.08-.484-2.702-1.455-.62-.97-.93-2.45-.93-4.437v-2.646c0-.89.062-1.65.19-2.284s.302-1.167.516-1.598.458-.772.732-1.023.558-.443.85-.576.58-.217.865-.254a5.95 5.95 0 0 1 .783-.056c.475 0 .91.063 1.303.188s.732.315 1.018.57.506.575.662.96.234.842.234 1.365c0 .326-.016.605-.046.84s-.073.46-.127.676h-2.056v-.468c0-.706-.083-1.256-.25-1.653-.166-.397-.438-.595-.818-.595-.212 0-.395.05-.55.147s-.287.266-.393.503c-.105.238-.184.557-.234.957-.05.4-.076.902-.076 1.506v3.98c0 .61.02 1.13.062 1.556.04.427.11.775.212 1.043.103.267.238.462.407.584.17.122.38.183.63.183a.793.793 0 0 0 .697-.418c.092-.15.166-.35.224-.596s.088-.555.088-.92v-.44h2.22v.54c0 1.33-.295 2.298-.882 2.905s-1.464.912-2.63.912zM117.666 36.482c-.434 0-.818-.086-1.154-.26a2.53 2.53 0 0 1-.85-.707c-.23-.298-.405-.653-.524-1.063s-.178-.856-.178-1.338c0-.576.07-1.09.214-1.537.142-.448.35-.85.625-1.21.274-.36.615-.688 1.022-.983a9.69 9.69 0 0 1 1.414-.84c.258-.128.548-.258.87-.39s.608-.247.86-.342V25.96c0-.27-.01-.524-.03-.758a1.897 1.897 0 0 0-.148-.61.91.91 0 0 0-.35-.408c-.157-.098-.37-.147-.643-.147-.183 0-.36.034-.534.102s-.324.182-.457.345a1.83 1.83 0 0 0-.315.65 3.7 3.7 0 0 0-.117 1.01v.61h-1.963a8.553 8.553 0 0 1-.137-.73 4.7 4.7 0 0 1-.046-.655c0-.522.09-.984.27-1.384.18-.4.43-.736.753-1.007a3.28 3.28 0 0 1 1.155-.617c.447-.14.94-.208 1.476-.208.698 0 1.278.076 1.74.23.46.152.83.38 1.103.686.275.306.47.69.58 1.15s.17 1 .17 1.62v10.49h-1.914l-.184-1.2c-.278.4-.65.725-1.114.976s-.995.376-1.592.376zm1.14-1.984c.217 0 .43-.056.636-.168s.382-.25.523-.412v-4.386c-.136.055-.288.12-.457.193a4.45 4.45 0 0 0-.55.295 3.618 3.618 0 0 0-.54.417 2.76 2.76 0 0 0-.473.58c-.14.224-.25.477-.336.758s-.128.595-.128.94c0 .537.105.967.315 1.293s.547.49 1.01.49zM125.135 22.317h1.984l.232 1.496v.01a4.01 4.01 0 0 1 .656-.8c.234-.213.477-.384.728-.513.25-.128.508-.22.77-.274.26-.054.52-.082.777-.082.82 0 1.454.287 1.898.86s.667 1.433.667 2.58V36.33h-2.574V25.686c0-.617-.095-1.046-.285-1.288-.19-.24-.468-.36-.834-.36-.258 0-.515.083-.77.253-.254.17-.48.404-.676.703V36.33h-2.574V22.317zM134.965 33.4c0-.306.028-.602.087-.886.057-.285.113-.512.167-.682h1.81c0 .51.026.935.077 1.277.052.342.135.615.25.818.115.203.27.35.463.438a1.7 1.7 0 0 0 .707.132c.387 0 .668-.108.845-.326.176-.217.265-.468.265-.753 0-.15-.02-.293-.062-.43a2.17 2.17 0 0 0-.173-.41 3.14 3.14 0 0 0-.274-.423c-.108-.142-.23-.298-.366-.468l-1.883-2.22c-.245-.305-.48-.615-.708-.93-.228-.317-.428-.642-.6-.978s-.314-.687-.418-1.053a4.19 4.19 0 0 1-.158-1.16c0-.543.094-1.015.28-1.416.187-.4.438-.732.753-.997s.68-.46 1.093-.59.852-.193 1.313-.193c.51 0 .967.06 1.374.183s.757.305 1.048.55c.292.244.516.548.672.91s.234.786.234 1.268c0 .326-.03.64-.087.947a13.68 13.68 0 0 1-.168.783h-1.78c-.008-.46-.028-.865-.063-1.21a3.184 3.184 0 0 0-.188-.86 1.142 1.142 0 0 0-.377-.515c-.16-.115-.368-.173-.626-.173-.224 0-.41.035-.56.106a.993.993 0 0 0-.554.667 1.82 1.82 0 0 0 .177 1.343c.156.278.363.58.62.906l2.057 2.41c.15.185.322.407.52.668.196.262.383.55.56.865.176.315.325.66.447 1.033.122.374.183.763.183 1.17 0 .495-.078.945-.233 1.348a2.747 2.747 0 0 1-.692 1.033c-.305.285-.68.505-1.124.662a4.606 4.606 0 0 1-1.52.232c-.47 0-.91-.053-1.324-.157a2.827 2.827 0 0 1-1.078-.52 2.46 2.46 0 0 1-.723-.95c-.18-.395-.268-.88-.268-1.456z"/></g><g fill="#364299"><path d="M46.084 9.914h.974v5.658h1.328v.768h-2.302V9.914zM49.767 14.198l-1.294-4.285h.98l.787 3.074h.045l.78-3.074h.977l-1.302 4.285v2.14h-.974V14.2zM54.033 16.396c-.103 0-.214-.008-.335-.025a1.316 1.316 0 0 1-.697-.326 1.343 1.343 0 0 1-.29-.382 2.268 2.268 0 0 1-.2-.585 3.986 3.986 0 0 1-.075-.83V11.97c0-.322.025-.6.077-.828.05-.23.12-.423.205-.58a1.277 1.277 0 0 1 .634-.587c.12-.05.238-.08.356-.096a2.6 2.6 0 0 1 .327-.023c.095 0 .2.007.318.02s.234.045.35.09c.118.047.23.116.342.208.11.09.208.216.293.372.085.157.153.352.205.583.052.232.077.512.077.84v2.276c0 .32-.026.593-.08.822a2.38 2.38 0 0 1-.206.583 1.346 1.346 0 0 1-.636.61c-.117.055-.232.09-.348.108-.117.02-.22.028-.313.028zm0-.734a.59.59 0 0 0 .25-.05.398.398 0 0 0 .177-.168.98.98 0 0 0 .105-.318c.024-.13.036-.297.036-.498v-2.923c0-.206-.01-.377-.035-.515-.024-.138-.06-.25-.105-.333s-.105-.144-.177-.18a.56.56 0 0 0-.25-.052c-.098 0-.183.018-.256.053s-.133.095-.18.18a1.06 1.06 0 0 0-.108.332c-.025.138-.037.31-.037.515v2.923c0 .2.012.367.036.498.022.132.06.238.106.318.048.08.108.137.18.17s.16.048.257.048zM56.538 9.914h.79l1.557 4.3h.022c-.007-.1-.018-.212-.03-.335a10.226 10.226 0 0 1-.034-.42 18.675 18.675 0 0 1-.038-1.2V9.913h.873v6.425h-.798l-1.55-4.188h-.03c.007.113.018.235.03.367.013.13.024.286.034.464a23.63 23.63 0 0 1 .037 1.468v1.888h-.864V9.914zM63.81 16.396c-.1 0-.21-.008-.325-.025a1.29 1.29 0 0 1-.685-.326 1.327 1.327 0 0 1-.282-.382c-.082-.158-.147-.353-.196-.585s-.073-.508-.073-.83V11.97c0-.322.024-.6.074-.828.05-.23.117-.423.2-.58a1.265 1.265 0 0 1 .62-.587c.114-.05.23-.08.343-.096s.22-.023.318-.023c.256 0 .47.036.642.107.172.072.31.17.414.293s.18.27.223.435.066.34.066.527c0 .137-.008.264-.022.38a5.055 5.055 0 0 1-.062.386h-.79v-.327c0-.355-.04-.62-.117-.795-.08-.175-.192-.263-.343-.263-.09 0-.17.018-.237.053s-.124.095-.17.18a1.12 1.12 0 0 0-.103.332c-.023.138-.036.31-.036.515v2.935c0 .2.01.367.03.5s.048.24.09.32a.38.38 0 0 0 .168.17.56.56 0 0 0 .25.052c.063 0 .123-.016.18-.044s.11-.074.153-.135.08-.138.106-.232c.026-.094.04-.205.04-.333v-.628h.892v.594c0 .518-.118.9-.354 1.145s-.573.368-1.014.37zM67.368 16.396c-.103 0-.214-.008-.335-.025a1.316 1.316 0 0 1-.697-.326 1.343 1.343 0 0 1-.29-.382 2.268 2.268 0 0 1-.2-.585 3.986 3.986 0 0 1-.076-.83V11.97c0-.322.025-.6.077-.828.05-.23.12-.423.205-.58a1.277 1.277 0 0 1 .634-.587c.12-.05.237-.08.355-.096a2.6 2.6 0 0 1 .328-.023c.095 0 .2.007.318.02s.233.045.35.09a1.256 1.256 0 0 1 .634.58c.086.157.154.352.205.583.052.232.077.512.077.84v2.276c0 .32-.026.593-.08.822s-.12.424-.206.583a1.346 1.346 0 0 1-.637.61c-.118.055-.233.09-.35.108-.115.02-.22.028-.312.028zm0-.734a.59.59 0 0 0 .25-.05.398.398 0 0 0 .177-.168.98.98 0 0 0 .105-.318c.024-.13.036-.297.036-.498v-2.923c0-.206-.012-.377-.036-.515-.024-.138-.06-.25-.105-.333s-.105-.144-.177-.18a.56.56 0 0 0-.25-.052c-.098 0-.183.018-.256.053s-.133.095-.18.18a1.06 1.06 0 0 0-.108.332c-.024.138-.036.31-.036.515v2.923c0 .2.012.367.036.498.023.132.06.238.107.318.05.08.11.137.182.17s.16.048.256.048zM69.85 9.914h.982v4.71c0 .2.01.367.03.5.02.133.052.24.096.318.044.08.1.135.17.17.068.033.15.05.245.05a.58.58 0 0 0 .25-.05c.072-.035.13-.09.178-.17a.963.963 0 0 0 .105-.318c.024-.133.036-.3.036-.5v-4.71h.972v4.45c0 .313-.025.582-.075.805-.05.222-.117.41-.2.56a1.22 1.22 0 0 1-.955.646c-.112.013-.216.02-.31.02s-.193-.007-.306-.02a1.22 1.22 0 0 1-.663-.29 1.228 1.228 0 0 1-.282-.356 2.09 2.09 0 0 1-.197-.56 3.806 3.806 0 0 1-.073-.806v-4.45zM73.99 9.914h.79l1.557 4.3h.022c-.008-.1-.02-.212-.03-.335a13.38 13.38 0 0 1-.06-.95c-.008-.2-.012-.423-.012-.67V9.913h.873v6.425h-.797l-1.55-4.188h-.03c.008.113.018.235.03.367.013.13.024.286.034.464s.02.386.026.623.01.52.01.845v1.888h-.864V9.914zM78.823 10.68H77.79v-.766h3.038v.768h-1.03v5.658h-.975v-5.66zM82.25 14.198l-1.294-4.285h.982l.786 3.074h.045l.777-3.074h.98l-1.303 4.285v2.14h-.974V14.2z"/></g></svg>