<!-- Generator: Adobe Illustrator 15.1.0, SVG Export Plug-In . SVG Version: 6.00 Build 0)  -->
<!DOCTYPE svg PUBLIC "-//W3C//DTD SVG 1.1//EN" "http://www.w3.org/Graphics/SVG/1.1/DTD/svg11.dtd">
<svg version="1.1" id="Layer_1" xmlns="http://www.w3.org/2000/svg" xmlns:xlink="http://www.w3.org/1999/xlink" x="0px" y="0px"
	  viewBox="0 0 142.627 40.99" enable-background="new 0 0 142.627 40.99" xml:space="preserve">
<path id="the-top" fill="#35409A" d="M17.502,0.001C8.126,0.06,0,2.169,0,12.503c0,2.675,0.092,2.891,1.655,2.886
	c1.546-0.004,32.059-0.036,32.082-0.036c1.194,0.015,1.513-0.275,1.507-2.316C35.215,2.354,28.442-0.068,17.502,0.001"/>
<path id="star1_1_" fill="#FFFFFF" d="M7.464,12.743l-1.06-3.189L3.058,9.541l2.706-1.993L4.741,4.361l2.732,1.957l2.714-1.957
	L9.171,7.564l2.7,1.977L8.51,9.564L7.464,12.743z"/>
<path id="star2_1_" fill="#FFFFFF" d="M17.723,12.704l-1.06-3.188l-3.346-0.013l2.706-1.993L15,4.323l2.732,1.957l2.714-1.957
	L19.43,7.526l2.7,1.977l-3.361,0.023L17.723,12.704z"/>
<path id="star3_1_" fill="#FFFFFF" d="M27.964,12.741l-1.06-3.189L23.558,9.54l2.705-1.994L25.24,4.36l2.732,1.957l2.714-1.957
	L29.67,7.563l2.7,1.977l-3.36,0.022L27.964,12.741z"/>
<path id="the-bottom" fill="#DC1F26" d="M1.397,16.456c-0.967-0.005-1.306,0.258-1.306,1.085c0,1.711-0.129,14.93-0.055,17.08
	c0.029,0.846,0.497,1.095,1.122,1.103c1.397,0.019,4.872,0.064,6.159,0.037c0.882-0.019,1.262-0.44,1.305-1.71
	c0.04-1.19-0.019-3.162,0.019-4.927c0.013-0.596,0.221-1.03,0.827-1.048c1.538-0.047,7.448-0.048,8.623-0.02
	c1.489,0.037,1.728,0.02,1.765,1.563c0.043,1.835,0.037,2.96-0.019,4.376c-0.059,1.512,0.441,1.654,1.25,1.673
	c1.194,0.026,3.953-0.039,5.332-0.019c1.833,0.026,1.799-0.532,1.82-2.923c0.01-1.03,0.002-4.617-0.037-6.251
	c-0.009-0.406,0.202-0.694,0.478-0.699c1.124-0.018,1.358,2.924,1.636,4.395c1.031,5.45,3.415,6.146,5.589,6.158
	c2.725,0.018,5.322-2.242,5.332-6.894c0.001-0.7-0.147-1.306-0.662-1.306c-2.299,0-0.957,0.033-2.17,0
	c-0.644-0.019-1.213,0.073-1.084,1.066c0.128,0.993,0.185,2.843-1.067,2.887c-0.533,0.018-0.956-0.368-0.956-1.453
	c0-1.084-0.077-12.134-0.111-13.017c-0.019-0.478-0.037-1.194-0.993-1.176C33.001,16.461,3.335,16.466,1.397,16.456z"/>
<path fill="none" d="M55.982,40.368"/>
<g>
	<path fill="#364299" d="M45.854,18.949h2.859c0.326,0,0.684,0.014,1.074,0.041c0.39,0.027,0.78,0.093,1.17,0.198
		c0.39,0.105,0.767,0.263,1.13,0.473c0.363,0.21,0.685,0.499,0.966,0.865c0.282,0.366,0.507,0.826,0.677,1.378
		c0.169,0.553,0.254,1.223,0.254,2.01v0.438c0,1.323-0.19,2.4-0.57,3.231s-0.939,1.43-1.679,1.796l2.788,6.95h-2.788l-2.31-6.502
		h-0.987v6.502h-2.584V18.949z M48.835,27.924c0.461,0,0.851-0.051,1.17-0.153c0.319-0.102,0.576-0.273,0.773-0.514
		c0.196-0.241,0.339-0.56,0.427-0.957c0.088-0.397,0.132-0.887,0.132-1.471v-1.374c0-0.448-0.041-0.834-0.122-1.16
		c-0.082-0.326-0.219-0.594-0.412-0.804c-0.193-0.21-0.45-0.366-0.769-0.468c-0.319-0.102-0.719-0.153-1.201-0.153h-0.397v7.052
		H48.835z"/>
	<path fill="#364299" d="M59.734,36.482c-0.604,0-1.139-0.111-1.604-0.336c-0.464-0.224-0.856-0.573-1.175-1.048
		c-0.319-0.475-0.56-1.083-0.723-1.827c-0.163-0.743-0.244-1.636-0.244-2.681v-2.646c0-0.889,0.066-1.65,0.198-2.284
		s0.306-1.167,0.519-1.598c0.214-0.431,0.461-0.772,0.743-1.023c0.281-0.251,0.571-0.442,0.87-0.575s0.596-0.217,0.891-0.254
		c0.295-0.038,0.568-0.056,0.819-0.056c0.461,0,0.905,0.07,1.333,0.208c0.428,0.139,0.804,0.376,1.13,0.712
		c0.325,0.336,0.585,0.785,0.778,1.348c0.193,0.563,0.29,1.266,0.29,2.107c0,0.285-0.009,0.573-0.025,0.865
		c-0.018,0.292-0.039,0.579-0.066,0.86c-0.027,0.282-0.063,0.555-0.106,0.819c-0.045,0.265-0.091,0.509-0.138,0.732h-4.65v1.425
		c0,0.61,0.023,1.125,0.071,1.542c0.047,0.417,0.127,0.753,0.239,1.007c0.111,0.254,0.265,0.438,0.457,0.55
		c0.193,0.112,0.437,0.168,0.729,0.168c0.155,0,0.309-0.032,0.457-0.097c0.149-0.064,0.28-0.171,0.393-0.321
		c0.111-0.149,0.201-0.348,0.27-0.595c0.067-0.248,0.102-0.555,0.102-0.921v-0.438h2.147v0.539c0,1.33-0.317,2.298-0.952,2.905
		C61.852,36.178,60.934,36.482,59.734,36.482z M61.159,28.077c0.006-0.074,0.013-0.174,0.02-0.3
		c0.007-0.125,0.012-0.256,0.016-0.392c0.003-0.136,0.005-0.27,0.005-0.402s0-0.246,0-0.341c0-0.923-0.108-1.587-0.325-1.995
		c-0.218-0.407-0.54-0.61-0.967-0.61c-0.224,0-0.421,0.052-0.591,0.158c-0.169,0.105-0.309,0.281-0.417,0.529
		c-0.108,0.248-0.189,0.575-0.244,0.982c-0.055,0.407-0.081,0.913-0.081,1.517v0.854H61.159z"/>
	<path fill="#364299" d="M68.312,37.124v3.734h-2.574V22.317h2.015l0.234,1.476c0.115-0.189,0.252-0.383,0.412-0.58
		c0.159-0.196,0.346-0.371,0.56-0.524c0.213-0.152,0.454-0.278,0.723-0.376c0.268-0.098,0.567-0.147,0.9-0.147
		c0.143,0,0.313,0.014,0.514,0.041c0.2,0.027,0.407,0.095,0.621,0.204c0.213,0.108,0.427,0.27,0.641,0.483s0.403,0.507,0.57,0.88
		c0.166,0.373,0.302,0.838,0.406,1.394c0.105,0.556,0.158,1.231,0.158,2.025v4.244c0,0.793-0.053,1.469-0.158,2.025
		c-0.104,0.556-0.242,1.021-0.412,1.394c-0.169,0.373-0.362,0.668-0.58,0.886c-0.217,0.217-0.438,0.38-0.661,0.488
		s-0.441,0.178-0.651,0.208c-0.21,0.031-0.394,0.046-0.55,0.046c-0.542,0-0.995-0.104-1.358-0.315
		c-0.362-0.21-0.659-0.464-0.89-0.763L68.312,37.124z M68.312,33.47c0.054,0.136,0.12,0.265,0.198,0.387s0.17,0.23,0.275,0.326
		c0.104,0.095,0.224,0.171,0.355,0.229c0.133,0.058,0.287,0.086,0.463,0.086c0.19,0,0.363-0.036,0.52-0.107s0.291-0.2,0.407-0.387
		c0.115-0.187,0.205-0.446,0.27-0.778s0.097-0.76,0.097-1.282v-5.363c0-0.522-0.032-0.948-0.097-1.277s-0.153-0.588-0.265-0.778
		c-0.112-0.19-0.246-0.319-0.402-0.387s-0.329-0.102-0.519-0.102c-0.326,0-0.592,0.097-0.799,0.29
		c-0.207,0.193-0.375,0.419-0.504,0.676V33.47z"/>
	<path fill="#364299" d="M75.832,22.317h2.575V32.85c0,0.617,0.095,1.046,0.285,1.287c0.189,0.241,0.468,0.361,0.834,0.361
		c0.258,0,0.509-0.071,0.753-0.214s0.465-0.346,0.661-0.61V22.317h2.575V36.33h-1.964l-0.255-1.496h-0.01
		c-0.204,0.319-0.419,0.585-0.646,0.799c-0.228,0.214-0.465,0.384-0.712,0.509c-0.248,0.126-0.501,0.216-0.759,0.27
		c-0.258,0.055-0.516,0.082-0.773,0.082c-0.82,0-1.453-0.285-1.897-0.855c-0.444-0.569-0.667-1.431-0.667-2.584V22.317z"/>
	<path fill="#364299" d="M86.202,17.819h2.574v3.734l-0.081,1.852l0.01,0.01c0.115-0.163,0.249-0.319,0.402-0.468
		c0.152-0.149,0.325-0.283,0.519-0.402c0.193-0.119,0.407-0.212,0.642-0.28c0.233-0.067,0.489-0.102,0.768-0.102
		c0.143,0,0.314,0.014,0.515,0.041c0.199,0.027,0.406,0.095,0.62,0.204s0.428,0.27,0.642,0.483c0.213,0.214,0.403,0.507,0.569,0.88
		s0.302,0.838,0.407,1.394s0.157,1.231,0.157,2.025v4.244c0,0.793-0.052,1.469-0.157,2.025s-0.242,1.022-0.412,1.399
		c-0.17,0.376-0.363,0.673-0.58,0.89s-0.438,0.38-0.661,0.488c-0.225,0.108-0.441,0.179-0.651,0.209
		c-0.211,0.03-0.394,0.046-0.55,0.046c-0.325,0-0.619-0.041-0.88-0.122c-0.262-0.082-0.492-0.192-0.692-0.331
		s-0.376-0.297-0.529-0.473c-0.152-0.176-0.286-0.356-0.401-0.54l-0.214,1.303h-2.015V17.819z M88.776,33.49
		c0.054,0.129,0.12,0.254,0.198,0.377c0.078,0.122,0.168,0.229,0.27,0.32c0.103,0.092,0.221,0.167,0.356,0.224
		s0.288,0.086,0.458,0.086c0.189,0,0.362-0.036,0.519-0.107s0.292-0.2,0.407-0.387s0.205-0.446,0.27-0.778s0.097-0.76,0.097-1.282
		v-5.363c0-0.522-0.032-0.948-0.097-1.277s-0.152-0.588-0.265-0.778c-0.111-0.19-0.245-0.319-0.401-0.387s-0.329-0.102-0.52-0.102
		c-0.318,0-0.581,0.093-0.788,0.28s-0.375,0.409-0.504,0.667V33.49z"/>
	<path fill="#364299" d="M96.306,17.819h2.575v18.51h-2.575V17.819z"/>
	<path fill="#364299" d="M102.941,20.313c-0.475,0-0.85-0.143-1.124-0.427c-0.274-0.285-0.412-0.702-0.412-1.252
		c0-0.305,0.035-0.561,0.106-0.768s0.173-0.373,0.306-0.499c0.132-0.125,0.293-0.217,0.483-0.275
		c0.189-0.058,0.407-0.086,0.651-0.086c0.509,0,0.896,0.129,1.16,0.387s0.396,0.671,0.396,1.241c0,0.529-0.134,0.941-0.401,1.236
		C103.838,20.165,103.45,20.313,102.941,20.313z M101.608,22.317h2.575V36.33h-2.575V22.317z"/>
	<path fill="#364299" d="M110.136,36.482c-1.181,0-2.081-0.484-2.702-1.455c-0.621-0.97-0.931-2.449-0.931-4.437v-2.646
		c0-0.889,0.063-1.65,0.192-2.284s0.301-1.167,0.515-1.598s0.458-0.772,0.732-1.023s0.558-0.442,0.85-0.575s0.58-0.217,0.865-0.254
		c0.285-0.038,0.546-0.056,0.783-0.056c0.475,0,0.909,0.063,1.303,0.188s0.732,0.315,1.018,0.57s0.505,0.575,0.661,0.961
		s0.234,0.841,0.234,1.364c0,0.326-0.016,0.605-0.046,0.839s-0.073,0.46-0.127,0.677h-2.056v-0.468c0-0.706-0.083-1.256-0.249-1.653
		c-0.167-0.397-0.439-0.595-0.819-0.595c-0.211,0-0.394,0.049-0.55,0.147s-0.286,0.266-0.392,0.503
		c-0.105,0.238-0.184,0.557-0.234,0.957c-0.051,0.4-0.076,0.902-0.076,1.506v3.979c0,0.611,0.021,1.13,0.062,1.557
		c0.04,0.427,0.111,0.775,0.213,1.043c0.103,0.268,0.238,0.463,0.407,0.585c0.17,0.122,0.38,0.183,0.631,0.183
		c0.129,0,0.255-0.032,0.377-0.097s0.229-0.171,0.32-0.321c0.092-0.149,0.166-0.348,0.224-0.595s0.087-0.555,0.087-0.921v-0.438
		h2.219v0.539c0,1.33-0.294,2.298-0.881,2.905S111.302,36.482,110.136,36.482z"/>
	<path fill="#364299" d="M117.666,36.482c-0.434,0-0.818-0.086-1.154-0.259c-0.336-0.174-0.619-0.409-0.85-0.708
		c-0.231-0.298-0.405-0.653-0.524-1.063s-0.178-0.856-0.178-1.338c0-0.576,0.071-1.089,0.214-1.537
		c0.142-0.448,0.351-0.851,0.625-1.211c0.275-0.359,0.616-0.687,1.023-0.982c0.406-0.295,0.878-0.575,1.414-0.839
		c0.258-0.129,0.548-0.259,0.87-0.392s0.608-0.246,0.859-0.341V25.96c0-0.271-0.01-0.524-0.03-0.758
		c-0.021-0.234-0.069-0.438-0.147-0.611c-0.078-0.173-0.195-0.309-0.351-0.407c-0.156-0.098-0.37-0.147-0.642-0.147
		c-0.183,0-0.361,0.034-0.534,0.102s-0.325,0.183-0.458,0.346c-0.132,0.163-0.237,0.38-0.315,0.651
		c-0.078,0.271-0.117,0.607-0.117,1.008v0.61h-1.964c-0.061-0.265-0.106-0.507-0.137-0.728c-0.031-0.22-0.046-0.439-0.046-0.656
		c0-0.522,0.09-0.984,0.27-1.384c0.18-0.4,0.431-0.736,0.753-1.007c0.322-0.271,0.707-0.477,1.155-0.616
		c0.447-0.139,0.939-0.208,1.476-0.208c0.698,0,1.278,0.076,1.739,0.229c0.462,0.153,0.83,0.381,1.104,0.687
		c0.274,0.305,0.468,0.688,0.58,1.15s0.168,1,0.168,1.618V36.33h-1.913l-0.184-1.201c-0.278,0.4-0.649,0.726-1.114,0.977
		S118.263,36.482,117.666,36.482z M118.806,34.498c0.217,0,0.429-0.056,0.636-0.168s0.382-0.25,0.523-0.412v-4.386
		c-0.136,0.055-0.288,0.119-0.457,0.193c-0.17,0.075-0.354,0.173-0.55,0.295c-0.184,0.115-0.363,0.254-0.539,0.417
		c-0.177,0.163-0.335,0.356-0.474,0.58c-0.139,0.224-0.251,0.477-0.336,0.758s-0.127,0.595-0.127,0.941
		c0,0.536,0.105,0.966,0.315,1.292S118.344,34.498,118.806,34.498z"/>
	<path fill="#364299" d="M125.135,22.317h1.984l0.233,1.496v0.01c0.204-0.319,0.423-0.585,0.656-0.799
		c0.234-0.214,0.477-0.385,0.728-0.514c0.251-0.128,0.508-0.22,0.769-0.274c0.262-0.054,0.521-0.082,0.778-0.082
		c0.821,0,1.454,0.287,1.898,0.86s0.666,1.433,0.666,2.58V36.33h-2.574V25.686c0-0.617-0.095-1.046-0.285-1.288
		c-0.189-0.241-0.468-0.361-0.834-0.361c-0.258,0-0.515,0.084-0.769,0.254c-0.255,0.169-0.48,0.403-0.677,0.702V36.33h-2.574V22.317
		z"/>
	<path fill="#364299" d="M134.965,33.399c0-0.305,0.028-0.601,0.087-0.885c0.057-0.285,0.113-0.512,0.167-0.682h1.812
		c0,0.509,0.025,0.935,0.076,1.277c0.052,0.343,0.135,0.616,0.25,0.819c0.115,0.203,0.27,0.349,0.463,0.438
		c0.193,0.088,0.429,0.132,0.707,0.132c0.387,0,0.668-0.108,0.845-0.326c0.176-0.217,0.265-0.468,0.265-0.753
		c0-0.149-0.021-0.292-0.062-0.428c-0.04-0.135-0.098-0.273-0.173-0.412c-0.074-0.139-0.166-0.28-0.274-0.422
		c-0.108-0.142-0.23-0.298-0.366-0.468l-1.883-2.219c-0.244-0.305-0.48-0.615-0.707-0.931c-0.228-0.316-0.428-0.641-0.601-0.977
		s-0.313-0.687-0.417-1.053c-0.105-0.366-0.158-0.753-0.158-1.16c0-0.542,0.094-1.014,0.28-1.415c0.187-0.4,0.438-0.732,0.753-0.997
		s0.68-0.461,1.094-0.59s0.852-0.193,1.313-0.193c0.509,0,0.967,0.061,1.374,0.183s0.757,0.305,1.048,0.55
		c0.292,0.244,0.516,0.548,0.672,0.911s0.234,0.785,0.234,1.267c0,0.326-0.029,0.641-0.087,0.947
		c-0.058,0.305-0.113,0.566-0.168,0.783h-1.78c-0.007-0.461-0.027-0.865-0.062-1.211c-0.034-0.346-0.097-0.632-0.188-0.86
		c-0.091-0.227-0.217-0.398-0.376-0.514c-0.16-0.115-0.368-0.173-0.626-0.173c-0.224,0-0.41,0.035-0.56,0.106
		s-0.27,0.165-0.361,0.28c-0.092,0.116-0.156,0.245-0.193,0.387c-0.037,0.143-0.056,0.289-0.056,0.438
		c0,0.325,0.077,0.627,0.233,0.905c0.156,0.278,0.363,0.58,0.621,0.906l2.056,2.412c0.149,0.184,0.322,0.406,0.519,0.667
		c0.197,0.262,0.384,0.55,0.56,0.865c0.177,0.315,0.326,0.66,0.448,1.033c0.122,0.374,0.183,0.763,0.183,1.17
		c0,0.495-0.078,0.945-0.233,1.348c-0.156,0.404-0.387,0.748-0.692,1.033c-0.305,0.285-0.68,0.505-1.124,0.662
		c-0.444,0.155-0.952,0.233-1.521,0.233c-0.468,0-0.909-0.053-1.323-0.157c-0.414-0.105-0.773-0.278-1.078-0.52
		c-0.306-0.24-0.547-0.558-0.723-0.951C135.053,34.46,134.965,33.976,134.965,33.399z"/>
</g>
<g>
	<path fill="#364299" d="M46.084,9.914h0.974v5.658h1.328v0.768h-2.302V9.914z"/>
	<path fill="#364299" d="M49.767,14.198l-1.294-4.285h0.981l0.786,3.074h0.045l0.779-3.074h0.978l-1.302,4.285v2.141h-0.974V14.198z
		"/>
	<path fill="#364299" d="M54.033,16.396c-0.103,0-0.214-0.008-0.335-0.025c-0.12-0.016-0.239-0.051-0.357-0.103
		c-0.118-0.053-0.231-0.127-0.34-0.224c-0.109-0.096-0.206-0.224-0.29-0.382c-0.084-0.158-0.151-0.353-0.201-0.585
		c-0.05-0.232-0.075-0.508-0.075-0.83v-2.276c0-0.323,0.025-0.6,0.077-0.829c0.051-0.229,0.12-0.423,0.205-0.58
		c0.085-0.157,0.182-0.281,0.292-0.374c0.109-0.093,0.223-0.164,0.342-0.213c0.119-0.049,0.237-0.081,0.355-0.096
		c0.118-0.015,0.227-0.022,0.327-0.022c0.095,0,0.201,0.007,0.318,0.021s0.233,0.044,0.35,0.09c0.117,0.046,0.23,0.115,0.341,0.207
		c0.11,0.091,0.208,0.216,0.293,0.372c0.085,0.157,0.153,0.352,0.205,0.583c0.052,0.232,0.077,0.512,0.077,0.84v2.276
		c0,0.319-0.026,0.593-0.079,0.822c-0.053,0.229-0.122,0.424-0.207,0.583c-0.085,0.159-0.184,0.287-0.295,0.384
		c-0.111,0.097-0.226,0.172-0.342,0.226c-0.117,0.054-0.232,0.09-0.348,0.107C54.229,16.387,54.125,16.396,54.033,16.396z
		 M54.033,15.662c0.095,0,0.179-0.016,0.25-0.049c0.072-0.033,0.13-0.089,0.177-0.169c0.046-0.08,0.082-0.186,0.105-0.318
		c0.024-0.131,0.036-0.297,0.036-0.498v-2.923c0-0.206-0.012-0.377-0.036-0.515c-0.024-0.138-0.059-0.249-0.105-0.333
		s-0.105-0.144-0.177-0.179c-0.071-0.035-0.155-0.053-0.25-0.053c-0.098,0-0.183,0.018-0.256,0.053s-0.133,0.095-0.181,0.179
		c-0.047,0.084-0.083,0.195-0.107,0.333c-0.024,0.138-0.036,0.31-0.036,0.515v2.923c0,0.201,0.012,0.367,0.036,0.498
		c0.023,0.132,0.06,0.238,0.107,0.318c0.048,0.081,0.108,0.137,0.181,0.169S53.935,15.662,54.033,15.662z"/>
	<path fill="#364299" d="M56.538,9.914h0.79l1.557,4.3h0.022c-0.007-0.1-0.018-0.212-0.03-0.335
		c-0.013-0.123-0.024-0.262-0.034-0.419c-0.01-0.156-0.019-0.334-0.026-0.532c-0.008-0.198-0.012-0.421-0.012-0.669V9.914h0.873
		v6.425h-0.798l-1.55-4.187h-0.03c0.007,0.113,0.018,0.235,0.03,0.367c0.013,0.132,0.024,0.287,0.034,0.465
		c0.01,0.178,0.019,0.386,0.026,0.623c0.007,0.237,0.011,0.519,0.011,0.845v1.888h-0.865V9.914z"/>
	<path fill="#364299" d="M63.81,16.396c-0.101,0-0.209-0.008-0.325-0.025c-0.117-0.016-0.233-0.051-0.35-0.103
		c-0.117-0.053-0.228-0.127-0.335-0.224c-0.106-0.096-0.201-0.224-0.282-0.382c-0.082-0.158-0.147-0.353-0.196-0.585
		s-0.073-0.508-0.073-0.83v-2.276c0-0.323,0.025-0.6,0.075-0.829c0.05-0.229,0.117-0.423,0.199-0.58
		c0.083-0.157,0.178-0.281,0.286-0.374c0.107-0.093,0.219-0.164,0.334-0.213c0.115-0.049,0.23-0.081,0.344-0.096
		s0.22-0.022,0.318-0.022c0.256,0,0.47,0.036,0.642,0.107c0.172,0.072,0.31,0.169,0.414,0.293s0.178,0.269,0.222,0.435
		s0.066,0.341,0.066,0.527c0,0.138-0.007,0.265-0.021,0.382c-0.014,0.116-0.034,0.245-0.062,0.385h-0.79v-0.327
		c0-0.354-0.039-0.618-0.117-0.794c-0.078-0.175-0.191-0.263-0.342-0.263c-0.09,0-0.169,0.018-0.237,0.053s-0.124,0.095-0.169,0.179
		c-0.045,0.084-0.08,0.195-0.104,0.333c-0.023,0.138-0.036,0.31-0.036,0.515v2.935c0,0.2,0.009,0.367,0.028,0.5
		s0.049,0.24,0.092,0.32c0.042,0.08,0.098,0.137,0.167,0.171c0.069,0.034,0.152,0.051,0.25,0.051c0.063,0,0.123-0.015,0.181-0.043
		s0.108-0.074,0.152-0.135s0.079-0.139,0.105-0.233c0.026-0.094,0.04-0.205,0.04-0.333v-0.628h0.892v0.594
		c0,0.517-0.118,0.898-0.354,1.144S64.251,16.393,63.81,16.396z"/>
	<path fill="#364299" d="M67.368,16.396c-0.103,0-0.214-0.008-0.335-0.025c-0.12-0.016-0.239-0.051-0.357-0.103
		c-0.118-0.053-0.231-0.127-0.34-0.224c-0.109-0.096-0.206-0.224-0.29-0.382c-0.084-0.158-0.151-0.353-0.201-0.585
		c-0.05-0.232-0.075-0.508-0.075-0.83v-2.276c0-0.323,0.025-0.6,0.077-0.829c0.051-0.229,0.12-0.423,0.205-0.58
		c0.085-0.157,0.182-0.281,0.292-0.374c0.109-0.093,0.223-0.164,0.342-0.213c0.119-0.049,0.237-0.081,0.355-0.096
		c0.118-0.015,0.227-0.022,0.327-0.022c0.095,0,0.201,0.007,0.318,0.021s0.233,0.044,0.35,0.09c0.117,0.046,0.23,0.115,0.341,0.207
		c0.11,0.091,0.208,0.216,0.293,0.372c0.086,0.157,0.154,0.352,0.205,0.583c0.052,0.232,0.077,0.512,0.077,0.84v2.276
		c0,0.319-0.026,0.593-0.079,0.822s-0.121,0.424-0.207,0.583c-0.085,0.159-0.184,0.287-0.295,0.384s-0.226,0.172-0.342,0.226
		c-0.117,0.054-0.232,0.09-0.348,0.107C67.565,16.387,67.461,16.396,67.368,16.396z M67.368,15.662c0.095,0,0.179-0.016,0.25-0.049
		c0.072-0.033,0.13-0.089,0.177-0.169c0.046-0.08,0.082-0.186,0.105-0.318c0.024-0.131,0.036-0.297,0.036-0.498v-2.923
		c0-0.206-0.012-0.377-0.036-0.515c-0.024-0.138-0.059-0.249-0.105-0.333s-0.105-0.144-0.177-0.179
		c-0.071-0.035-0.155-0.053-0.25-0.053c-0.098,0-0.183,0.018-0.256,0.053s-0.133,0.095-0.181,0.179
		c-0.047,0.084-0.083,0.195-0.107,0.333c-0.024,0.138-0.036,0.31-0.036,0.515v2.923c0,0.201,0.012,0.367,0.036,0.498
		c0.023,0.132,0.06,0.238,0.107,0.318c0.048,0.081,0.108,0.137,0.181,0.169S67.271,15.662,67.368,15.662z"/>
	<path fill="#364299" d="M69.85,9.914h0.982v4.71c0,0.201,0.01,0.367,0.029,0.5c0.021,0.133,0.053,0.239,0.097,0.318
		c0.044,0.079,0.1,0.135,0.169,0.169c0.069,0.034,0.151,0.051,0.246,0.051c0.096,0,0.179-0.017,0.251-0.051
		c0.071-0.034,0.13-0.09,0.177-0.169c0.046-0.079,0.081-0.185,0.104-0.318c0.024-0.133,0.036-0.3,0.036-0.5v-4.71h0.971v4.45
		c0,0.313-0.025,0.582-0.075,0.805c-0.051,0.223-0.117,0.41-0.199,0.561c-0.083,0.15-0.178,0.27-0.284,0.357
		s-0.217,0.155-0.331,0.201s-0.228,0.076-0.341,0.088c-0.112,0.013-0.216,0.019-0.309,0.019s-0.194-0.006-0.307-0.019
		c-0.111-0.013-0.224-0.042-0.336-0.088c-0.113-0.046-0.223-0.113-0.327-0.201c-0.105-0.088-0.2-0.207-0.282-0.357
		c-0.083-0.15-0.149-0.337-0.198-0.559c-0.049-0.222-0.073-0.491-0.073-0.807V9.914z"/>
	<path fill="#364299" d="M73.989,9.914h0.79l1.558,4.3h0.022c-0.007-0.1-0.018-0.212-0.03-0.335
		c-0.012-0.123-0.023-0.262-0.033-0.419c-0.011-0.156-0.02-0.334-0.026-0.532c-0.008-0.198-0.012-0.421-0.012-0.669V9.914h0.873
		v6.425h-0.798l-1.55-4.187h-0.03c0.008,0.113,0.018,0.235,0.03,0.367c0.013,0.132,0.024,0.287,0.034,0.465s0.019,0.386,0.026,0.623
		s0.011,0.519,0.011,0.845v1.888h-0.865V9.914z"/>
	<path fill="#364299" d="M78.823,10.681h-1.034V9.914h3.039v0.768h-1.03v5.658h-0.975V10.681z"/>
	<path fill="#364299" d="M82.25,14.198l-1.294-4.285h0.982l0.786,3.074h0.045l0.778-3.074h0.979l-1.302,4.285v2.141H82.25V14.198z"
		/>
</g>
</svg>